<?xml version="1.0" encoding="UTF-8"?>
<!DOCTYPE svg PUBLIC "-//W3C//DTD SVG 1.1//EN" "http://www.w3.org/Graphics/SVG/1.1/DTD/svg11.dtd">
<svg xmlns="http://www.w3.org/2000/svg" version="1.1" width="5644px" height="1202px" style="shape-rendering:geometricPrecision; text-rendering:geometricPrecision; image-rendering:optimizeQuality; fill-rule:evenodd; clip-rule:evenodd" xmlns:xlink="http://www.w3.org/1999/xlink">
<g><path style="opacity:0.995" fill="#00b5ec" d="M 4799.5,-0.5 C 4804.83,-0.5 4810.17,-0.5 4815.5,-0.5C 4842.87,0.260491 4868.53,7.42716 4892.5,21C 4929.58,46.0163 4944.75,80.8497 4938,125.5C 4928.8,178.703 4898.3,213.203 4846.5,229C 4811.91,238.463 4777.25,238.796 4742.5,230C 4678.46,208.436 4651.96,164.269 4663,97.5C 4672.26,63.5672 4692.1,37.7338 4722.5,20C 4746.75,7.35668 4772.41,0.523347 4799.5,-0.5 Z"/></g>
<g><path style="opacity:0.997" fill="#00b5ec" d="M 5643.5,80.5 C 5643.5,81.1667 5643.5,81.8333 5643.5,82.5C 5592.71,334.638 5542.21,586.971 5492,839.5C 5418.9,840.831 5345.73,840.831 5272.5,839.5C 5276.13,823.512 5279.3,807.512 5282,791.5C 5229.51,840.101 5167.68,858.934 5096.5,848C 5010.88,829.27 4952.05,779.104 4920,697.5C 4902.55,645.676 4897.88,592.676 4906,538.5C 4918.85,454.591 4957.69,385.757 5022.5,332C 5103.26,271.118 5192.26,255.118 5289.5,284C 5318.5,294.671 5342,312.504 5360,337.5C 5377.16,251.881 5393.99,166.214 5410.5,80.5C 5488.17,80.5 5565.83,80.5 5643.5,80.5 Z M 5224.5,453.5 C 5248.57,450.476 5270.57,455.642 5290.5,469C 5308.13,484.083 5317.96,503.25 5320,526.5C 5322.7,554.851 5318.7,582.185 5308,608.5C 5283.72,657.22 5244.89,675.72 5191.5,664C 5163.3,653.802 5146.14,633.969 5140,604.5C 5134.37,569.227 5139.37,535.561 5155,503.5C 5170.53,476.122 5193.7,459.456 5224.5,453.5 Z"/></g>
<g><path style="opacity:0.997" fill="#0055a4" d="M -0.5,783.5 C -0.5,782.833 -0.5,782.167 -0.5,781.5C 25.2678,724.393 50.7678,667.06 76,609.5C 76.3678,608.09 77.2011,607.09 78.5,606.5C 160.656,653.289 248.989,674.789 343.5,671C 358.334,670.3 372.667,667.3 386.5,662C 405.389,652.676 410.889,638.176 403,618.5C 397.116,610.635 389.616,604.802 380.5,601C 367.09,595.863 353.423,591.53 339.5,588C 290.195,577.606 241.195,565.939 192.5,553C 165.176,545.559 138.842,535.559 113.5,523C 29.4381,474.289 -3.39522,401.789 15,305.5C 30.5028,238.351 68.3361,188.184 128.5,155C 181.107,127.513 237.107,112.18 296.5,109C 375.269,103.312 452.602,111.312 528.5,133C 558.77,141.865 587.604,154.031 615,169.5C 591.952,227.617 568.286,285.617 544,343.5C 543.612,344.428 542.945,345.095 542,345.5C 498.465,323.099 452.632,307.266 404.5,298C 367.535,291.229 330.535,290.895 293.5,297C 279.239,299.712 267.073,306.212 257,316.5C 244.569,341.824 251.735,359.324 278.5,369C 295.854,375.089 313.521,380.089 331.5,384C 383.804,393.326 435.47,405.326 486.5,420C 539.039,434.661 582.205,463.161 616,505.5C 632.8,530.561 642.466,558.227 645,588.5C 652.102,684.137 614.935,756.637 533.5,806C 487.761,831.69 438.761,847.357 386.5,853C 289.134,863.136 193.467,854.469 99.5,827C 64.2974,816.56 30.964,802.06 -0.5,783.5 Z"/></g>
<g><path style="opacity:0.997" fill="#00b5ec" d="M 3763.5,107.5 C 3819.91,104.946 3875.57,110.113 3930.5,123C 3996.62,139.291 4052.78,172.124 4099,221.5C 4106.61,229.773 4113.45,238.606 4119.5,248C 4062,293 4004.33,337.833 3946.5,382.5C 3928.05,359.218 3906.05,340.051 3880.5,325C 3838.42,305.739 3794.42,299.406 3748.5,306C 3665.01,319.82 3611.18,367.32 3587,448.5C 3577.78,482.04 3575.45,516.04 3580,550.5C 3593.2,608.038 3628.7,643.204 3686.5,656C 3726.16,663.464 3765.32,661.631 3804,650.5C 3817.15,588.246 3829.98,525.913 3842.5,463.5C 3912.83,462.167 3983.17,462.167 4053.5,463.5C 4032.81,566.115 4012.31,668.782 3992,771.5C 3950.28,801.541 3904.45,823.374 3854.5,837C 3766.12,860.821 3677.12,863.487 3587.5,845C 3517.21,829.12 3457.38,795.286 3408,743.5C 3356.97,684.097 3331.8,614.931 3332.5,536C 3332.15,411.611 3376.81,306.944 3466.5,222C 3538.35,160.234 3621.69,123.567 3716.5,112C 3732.29,110.214 3747.96,108.714 3763.5,107.5 Z"/></g>
<g><path style="opacity:0.997" fill="#0055a4" d="M 992.5,269.5 C 1061.57,268.266 1125.57,285.433 1184.5,321C 1265.83,377.808 1306.5,456.308 1306.5,556.5C 1305.34,575.829 1304.34,595.162 1303.5,614.5C 1173.83,614.333 1044.17,614.5 914.5,615C 926.023,642.188 945.689,660.855 973.5,671C 1035.19,689.166 1091.19,678.5 1141.5,639C 1142.5,638.333 1143.5,638.333 1144.5,639C 1183.97,679.472 1223.81,719.639 1264,759.5C 1264.67,760.167 1264.67,760.833 1264,761.5C 1224.25,802.84 1176.08,829.34 1119.5,841C 1051.43,855.197 983.43,854.863 915.5,840C 851.851,825.772 797.351,795.605 752,749.5C 698.006,688.183 674.339,616.516 681,534.5C 690.907,438.133 737.073,364.966 819.5,315C 873.422,285.27 931.089,270.104 992.5,269.5 Z M 989.5,428.5 C 1042.85,426.044 1076.18,450.544 1089.5,502C 1029.83,502.5 970.168,502.667 910.5,502.5C 919.523,459.138 945.857,434.471 989.5,428.5 Z"/></g>
<g><path style="opacity:0.997" fill="#0055a4" d="M 1762.5,269.5 C 1809.06,268.374 1852.72,278.874 1893.5,301C 1946.89,334.193 1979.05,382.027 1990,444.5C 1993.07,460.702 1995.07,477.036 1996,493.5C 1996.5,609.166 1996.67,724.833 1996.5,840.5C 1919.17,840.5 1841.83,840.5 1764.5,840.5C 1764.67,742.166 1764.5,643.833 1764,545.5C 1763.29,528.342 1759.29,512.009 1752,496.5C 1739.71,475.015 1721.04,464.681 1696,465.5C 1650.95,467.875 1623.61,491.209 1614,535.5C 1612.72,542.124 1611.72,548.79 1611,555.5C 1610.5,650.499 1610.33,745.499 1610.5,840.5C 1532.83,840.5 1455.17,840.5 1377.5,840.5C 1377.5,653.833 1377.5,467.167 1377.5,280.5C 1451.17,280.5 1524.83,280.5 1598.5,280.5C 1598.33,298.503 1598.5,316.503 1599,334.5C 1632.26,301.787 1672.09,281.62 1718.5,274C 1733.23,271.639 1747.9,270.139 1762.5,269.5 Z"/></g>
<g><path style="opacity:0.996" fill="#0055a4" d="M 2350.5,269.5 C 2415.26,269.013 2478.59,278.18 2540.5,297C 2556,302.417 2571,308.917 2585.5,316.5C 2564.39,366.385 2543.56,416.385 2523,466.5C 2522.63,467.91 2521.8,468.91 2520.5,469.5C 2453.29,432.909 2381.95,421.076 2306.5,434C 2298.83,435.916 2292.33,439.75 2287,445.5C 2283.12,452.962 2283.95,459.796 2289.5,466C 2294.11,469.137 2299.11,471.47 2304.5,473C 2314.09,475.384 2323.75,477.384 2333.5,479C 2366.26,483.012 2398.93,487.678 2431.5,493C 2451.72,496.722 2471.72,501.389 2491.5,507C 2532.32,520.305 2564.48,544.805 2588,580.5C 2604.3,615.561 2609.3,652.228 2603,690.5C 2593.36,733.791 2570.53,768.291 2534.5,794C 2486.92,825.305 2434.59,843.305 2377.5,848C 2280.4,857.405 2186.07,845.405 2094.5,812C 2085.08,807.86 2075.75,803.527 2066.5,799C 2064.62,797.898 2062.95,796.565 2061.5,795C 2082.2,743.785 2103.53,692.952 2125.5,642.5C 2186.33,675.666 2251.49,692.332 2321,692.5C 2331.52,692.461 2342.02,691.961 2352.5,691C 2366,690.615 2377.83,686.115 2388,677.5C 2394.84,662.288 2390.01,652.788 2373.5,649C 2363.6,646.487 2353.6,644.487 2343.5,643C 2299.85,638.383 2256.51,631.716 2213.5,623C 2163.97,615.004 2123.81,591.504 2093,552.5C 2080.71,533.289 2073.37,512.289 2071,489.5C 2063.33,410.676 2093.83,351.842 2162.5,313C 2201.63,291.957 2243.3,278.957 2287.5,274C 2308.6,271.636 2329.6,270.136 2350.5,269.5 Z"/></g>
<g><path style="opacity:0.997" fill="#0055a4" d="M 2957.5,269.5 C 3016.98,268.762 3073.32,281.595 3126.5,308C 3216.29,358.67 3264.12,435.837 3270,539.5C 3270.48,564.541 3269.64,589.541 3267.5,614.5C 3138.16,614.167 3008.83,614.5 2879.5,615.5C 2893.31,647.456 2917.31,667.289 2951.5,675C 3008.8,687.414 3060.14,675.414 3105.5,639C 3106.5,638.333 3107.5,638.333 3108.5,639C 3148.69,678.861 3188.53,719.028 3228,759.5C 3228.67,760.167 3228.67,760.833 3228,761.5C 3189.91,801.977 3143.41,828.143 3088.5,840C 3016.01,855.759 2943.68,855.092 2871.5,838C 2808.32,822.51 2754.82,791.01 2711,743.5C 2654.12,673.978 2633.45,594.645 2649,505.5C 2670.65,405.691 2728.49,335.858 2822.5,296C 2866,278.866 2911,270.033 2957.5,269.5 Z M 2953.5,428.5 C 3006.58,425.933 3039.92,450.267 3053.5,501.5C 2993.84,502.667 2934.17,502.833 2874.5,502C 2883.74,458.925 2910.07,434.425 2953.5,428.5 Z"/></g>
<g><path style="opacity:0.997" fill="#00b5ec" d="M 4582.5,269.5 C 4584.5,269.5 4586.5,269.5 4588.5,269.5C 4574.83,338.167 4561.17,406.833 4547.5,475.5C 4519.24,470.981 4490.9,470.481 4462.5,474C 4415.33,480.806 4383.17,506.306 4366,550.5C 4362.87,559.363 4360.2,568.363 4358,577.5C 4340.18,665.118 4322.68,752.785 4305.5,840.5C 4227.83,840.833 4150.16,840.5 4072.5,839.5C 4109.86,653.551 4147.02,467.551 4184,281.5C 4257.1,280.335 4330.26,280.169 4403.5,281C 4399.48,299.098 4395.98,317.265 4393,335.5C 4429.48,302.347 4472.32,282.18 4521.5,275C 4541.88,271.997 4562.22,270.163 4582.5,269.5 Z"/></g>
<g><path style="opacity:0.997" fill="#00b5ec" d="M 4650.5,280.5 C 4727.5,280.5 4804.5,280.5 4881.5,280.5C 4844.76,467.215 4807.76,653.882 4770.5,840.5C 4693.5,840.5 4616.5,840.5 4539.5,840.5C 4576.24,653.785 4613.24,467.118 4650.5,280.5 Z"/></g>
<g><path style="opacity:0.984" fill="#0055a4" d="M 3950.5,941.5 C 3977.57,941.97 4002.57,949.303 4025.5,963.5C 4026.61,964.723 4026.78,966.056 4026,967.5C 4020.66,979.511 4014.83,991.178 4008.5,1002.5C 3986.02,987.392 3961.35,981.225 3934.5,984C 3921.7,988.432 3918.53,996.598 3925,1008.5C 3929.74,1013.12 3935.24,1016.62 3941.5,1019C 3958.67,1024.21 3975.67,1029.87 3992.5,1036C 4022.59,1049.87 4033.75,1073.04 4026,1105.5C 4021.24,1120.26 4012.08,1131.43 3998.5,1139C 3953.16,1156.95 3910.49,1151.95 3870.5,1124C 3867.08,1121.62 3864.08,1118.79 3861.5,1115.5C 3867.34,1103.15 3873.67,1091.15 3880.5,1079.5C 3896.04,1093.44 3914.04,1102.94 3934.5,1108C 3946.7,1110.48 3958.7,1109.81 3970.5,1106C 3983.68,1097.28 3984.68,1087.28 3973.5,1076C 3969.99,1073.75 3966.33,1071.75 3962.5,1070C 3949.64,1065.54 3936.64,1061.54 3923.5,1058C 3907.24,1053.63 3893.74,1045.13 3883,1032.5C 3874.98,1019.6 3872.31,1005.6 3875,990.5C 3881.1,967.062 3895.94,952.229 3919.5,946C 3929.84,943.47 3940.17,941.97 3950.5,941.5 Z"/></g>
<g><path style="opacity:0.984" fill="#3db658" d="M 4611.5,942.5 C 4648.53,939.785 4680.03,951.451 4706,977.5C 4729.83,1006.81 4736.83,1039.81 4727,1076.5C 4712.11,1117.71 4682.94,1141.88 4639.5,1149C 4600.2,1154.01 4566.7,1142.51 4539,1114.5C 4509.97,1077.64 4505.64,1037.97 4526,995.5C 4545.85,963.985 4574.35,946.318 4611.5,942.5 Z M 4612.5,982.5 C 4646.16,979.737 4669.66,993.737 4683,1024.5C 4691.87,1056.23 4683.03,1081.73 4656.5,1101C 4625.29,1116.99 4597.46,1112.49 4573,1087.5C 4553.3,1061.29 4552.63,1034.62 4571,1007.5C 4582.05,994.398 4595.88,986.065 4612.5,982.5 Z"/></g>
<g><path style="opacity:0.973" fill="#0055a4" d="M 4054.5,943.5 C 4069.17,943.5 4083.83,943.5 4098.5,943.5C 4098.5,998.5 4098.5,1053.5 4098.5,1108.5C 4127.17,1108.5 4155.83,1108.5 4184.5,1108.5C 4184.5,1121.83 4184.5,1135.17 4184.5,1148.5C 4141.17,1148.5 4097.83,1148.5 4054.5,1148.5C 4054.5,1080.17 4054.5,1011.83 4054.5,943.5 Z"/></g>
<g><path style="opacity:0.986" fill="#0055a4" d="M 4168.5,943.5 C 4218.5,943.167 4268.5,943.5 4318.5,944.5C 4324.71,957.078 4331.04,969.578 4337.5,982C 4316.5,982.5 4295.5,982.667 4274.5,982.5C 4274.5,1037.83 4274.5,1093.17 4274.5,1148.5C 4259.83,1148.5 4245.17,1148.5 4230.5,1148.5C 4230.5,1093.17 4230.5,1037.83 4230.5,982.5C 4209.83,982.5 4189.17,982.5 4168.5,982.5C 4168.5,969.5 4168.5,956.5 4168.5,943.5 Z"/></g>
<g><path style="opacity:0.989" fill="#3db658" d="M 4440.5,943.5 C 4456.83,943.5 4473.17,943.5 4489.5,943.5C 4489.5,1011.83 4489.5,1080.17 4489.5,1148.5C 4476.17,1148.5 4462.83,1148.5 4449.5,1148.5C 4449.67,1104.17 4449.5,1059.83 4449,1015.5C 4431.17,1052.5 4413.33,1089.5 4395.5,1126.5C 4385.5,1127.83 4375.5,1127.83 4365.5,1126.5C 4346.23,1087.62 4327.23,1048.62 4308.5,1009.5C 4322.83,1008.17 4337.17,1008.17 4351.5,1009.5C 4361.08,1028.99 4370.91,1048.32 4381,1067.5C 4401.12,1026.27 4420.95,984.933 4440.5,943.5 Z"/></g>
<g><path style="opacity:0.989" fill="#3db658" d="M 4755.5,943.5 C 4792.19,943.067 4828.86,943.567 4865.5,945C 4883.01,946.839 4897.51,954.339 4909,967.5C 4918.33,982.973 4919.99,999.306 4914,1016.5C 4908.83,1027 4901,1034.83 4890.5,1040C 4913.55,1049.06 4925.21,1066.06 4925.5,1091C 4924.86,1114.96 4913.52,1131.62 4891.5,1141C 4881.51,1144.86 4871.18,1147.2 4860.5,1148C 4825.5,1148.5 4790.5,1148.67 4755.5,1148.5C 4755.5,1080.17 4755.5,1011.83 4755.5,943.5 Z M 4798.5,982.5 C 4818.55,982.061 4838.55,982.561 4858.5,984C 4873.63,991.012 4877.13,1001.85 4869,1016.5C 4865.32,1020.42 4860.82,1022.92 4855.5,1024C 4836.54,1025.41 4817.54,1025.91 4798.5,1025.5C 4798.5,1011.17 4798.5,996.833 4798.5,982.5 Z M 4798.5,1062.5 C 4816.17,1062.33 4833.84,1062.5 4851.5,1063C 4861.7,1063.19 4870.2,1067.02 4877,1074.5C 4884.18,1091.31 4879.01,1102.47 4861.5,1108C 4857.23,1109.03 4852.89,1109.7 4848.5,1110C 4831.84,1110.5 4815.17,1110.67 4798.5,1110.5C 4798.5,1094.5 4798.5,1078.5 4798.5,1062.5 Z"/></g>
<g><path style="opacity:0.973" fill="#3db658" d="M 4952.5,943.5 C 4967.17,943.5 4981.83,943.5 4996.5,943.5C 4996.5,1011.83 4996.5,1080.17 4996.5,1148.5C 4981.83,1148.5 4967.17,1148.5 4952.5,1148.5C 4952.5,1080.17 4952.5,1011.83 4952.5,943.5 Z"/></g>
<g><path style="opacity:0.979" fill="#3db658" d="M 5013.5,943.5 C 5069.5,943.5 5125.5,943.5 5181.5,943.5C 5181.5,956.5 5181.5,969.5 5181.5,982.5C 5160.83,982.5 5140.17,982.5 5119.5,982.5C 5119.5,1037.83 5119.5,1093.17 5119.5,1148.5C 5104.83,1148.5 5090.17,1148.5 5075.5,1148.5C 5075.5,1093.17 5075.5,1037.83 5075.5,982.5C 5054.83,982.5 5034.17,982.5 5013.5,982.5C 5013.5,969.5 5013.5,956.5 5013.5,943.5 Z"/></g>
<g><path style="opacity:0.984" fill="#3db658" d="M 5199.5,943.5 C 5249.83,943.5 5300.17,943.5 5350.5,943.5C 5350.5,956.5 5350.5,969.5 5350.5,982.5C 5314.5,982.5 5278.5,982.5 5242.5,982.5C 5242.5,997.167 5242.5,1011.83 5242.5,1026.5C 5274.83,1026.5 5307.17,1026.5 5339.5,1026.5C 5339.5,1039.5 5339.5,1052.5 5339.5,1065.5C 5307.17,1065.5 5274.83,1065.5 5242.5,1065.5C 5242.5,1080.17 5242.5,1094.83 5242.5,1109.5C 5279.5,1109.5 5316.5,1109.5 5353.5,1109.5C 5353.5,1122.5 5353.5,1135.5 5353.5,1148.5C 5302.17,1148.5 5250.83,1148.5 5199.5,1148.5C 5199.5,1080.17 5199.5,1011.83 5199.5,943.5 Z"/></g>
<g><path style="opacity:0.988" fill="#3db658" d="M 5378.5,943.5 C 5392.83,943.5 5407.17,943.5 5421.5,943.5C 5421.5,998.5 5421.5,1053.5 5421.5,1108.5C 5450.5,1108.5 5479.5,1108.5 5508.5,1108.5C 5508.5,1121.83 5508.5,1135.17 5508.5,1148.5C 5465.17,1148.5 5421.83,1148.5 5378.5,1148.5C 5378.5,1080.17 5378.5,1011.83 5378.5,943.5 Z"/></g>
<g><path style="opacity:0.994" fill="#0055a4" d="M 3477.5,946.5 C 3514.5,946.333 3551.5,946.5 3588.5,947C 3610.06,947.499 3627.89,955.666 3642,971.5C 3652.48,990.935 3651.82,1009.93 3640,1028.5C 3635.61,1033.39 3630.78,1037.72 3625.5,1041.5C 3653.21,1053.58 3664.04,1074.58 3658,1104.5C 3651.92,1123.58 3639.09,1135.41 3619.5,1140C 3612.62,1141.98 3605.62,1143.31 3598.5,1144C 3558.17,1144.5 3517.83,1144.67 3477.5,1144.5C 3477.5,1078.5 3477.5,1012.5 3477.5,946.5 Z M 3523.5,981.5 C 3540.17,981.333 3556.84,981.5 3573.5,982C 3583.54,982.008 3592.04,985.508 3599,992.5C 3606.27,1013.28 3598.77,1024.78 3576.5,1027C 3558.84,1027.5 3541.17,1027.67 3523.5,1027.5C 3523.5,1012.17 3523.5,996.833 3523.5,981.5 Z M 3523.5,1061.5 C 3543.84,1061.33 3564.17,1061.5 3584.5,1062C 3608.35,1063.89 3616.51,1076.06 3609,1098.5C 3602.6,1105.08 3594.77,1108.58 3585.5,1109C 3564.84,1109.5 3544.17,1109.67 3523.5,1109.5C 3523.5,1093.5 3523.5,1077.5 3523.5,1061.5 Z"/></g>
<g><path style="opacity:0.984" fill="#0055a4" d="M 3721.5,1201.5 C 3713.83,1201.5 3706.17,1201.5 3698.5,1201.5C 3686.61,1199.76 3675.95,1195.09 3666.5,1187.5C 3672.17,1176.83 3677.83,1166.17 3683.5,1155.5C 3695.45,1165.73 3708.45,1167.56 3722.5,1161C 3727.25,1156.75 3730.58,1151.58 3732.5,1145.5C 3711.22,1094.68 3689.56,1044.01 3667.5,993.5C 3683.17,992.167 3698.83,992.167 3714.5,993.5C 3728.06,1026.95 3741.89,1060.28 3756,1093.5C 3770.33,1060 3784.16,1026.33 3797.5,992.5C 3812.18,992.167 3826.85,992.501 3841.5,993.5C 3816.61,1052.28 3791.44,1110.95 3766,1169.5C 3756.3,1187.38 3741.47,1198.04 3721.5,1201.5 Z"/></g>
</svg>
